<?xml version="1.0" encoding="UTF-8"?>
<svg version="1.1" xmlns="http://www.w3.org/2000/svg" width="1248" height="832">
<path d="M0 0 C1.89298828 0.27457031 1.89298828 0.27457031 3.82421875 0.5546875 C32.46765595 5.17183857 59.49631245 19.92606759 82.24438477 37.52270508 C86.68554568 40.93429205 89.89527203 43.03692505 95.5625 42.9375 C99.83348627 41.77268556 100.61035314 40.67414263 103 37 C103.98707153 34.27571046 104.63327488 31.51584185 105.25 28.6875 C105.50910156 27.57665039 105.50910156 27.57665039 105.7734375 26.44335938 C106.19422476 24.63163645 106.5987809 22.81615668 107 21 C105.6078125 21.061875 105.6078125 21.061875 104.1875 21.125 C101 21 101 21 98 19 C96.64426082 13.68133091 97.39997648 10.15837699 99 5 C108.52438186 4.89325101 118.02070085 4.96907027 127.53862 5.36163139 C144.0396346 6.03461391 160.50701528 6.09648481 177.01849365 6.01403427 C181.82367633 5.99032758 186.62885591 5.97748614 191.43408203 5.96633911 C205.07248482 5.93341271 218.71082055 5.89127511 232.34912109 5.82861328 C239.9386292 5.79383365 247.52809155 5.77020042 255.11767101 5.75840485 C259.10249533 5.75172318 263.08712156 5.73962859 267.0718689 5.71337509 C283.932887 5.60506889 300.36699914 5.83626883 317 9 C318.14617798 9.20352585 319.29235596 9.4070517 320.4732666 9.616745 C323.02109922 10.08017539 325.53872095 10.6081379 328.0625 11.1875 C328.9589624 11.3932666 329.8554248 11.5990332 330.77905273 11.81103516 C363.02451078 19.65674173 392.46731142 38.45792718 410 67 C421.43084603 87.19146936 426.63030315 109.55113499 426.4375 132.625 C426.43578796 133.35591858 426.43407593 134.08683716 426.43231201 134.83990479 C426.37773005 148.48279578 426.2050032 163.58999361 420 176 C399.54 176 379.08 176 358 176 C357.05351522 172.21406089 356.92928552 171.40296058 357.875 167.9375 C360.40584677 157.61445357 360.20415996 146.94266226 360.1875 136.375 C360.18689575 135.66623718 360.1862915 134.95747437 360.18566895 134.22723389 C360.16128662 123.68841772 359.88452494 113.39700975 358 103 C357.87109375 102.28279785 357.7421875 101.5655957 357.609375 100.82666016 C353.24702178 77.29317825 344.5402392 53.99414273 325 39 C305.47779956 25.94298125 284.10508786 21.62470701 260.92529297 21.62939453 C258.50287306 21.62500521 256.08225817 21.58849649 253.66015625 21.55078125 C242.4477745 21.46961968 229.85323198 21.87447691 221.359375 30.2421875 C209.92989868 45.02168274 212.84011597 68.52855992 212.73963928 86.00640297 C212.71839266 89.67498138 212.69139921 93.34347934 212.66296387 97.01200867 C212.59358894 106.10529487 212.5334911 115.19863713 212.47393799 124.29199219 C212.42310065 132.01405311 212.36837319 139.73606591 212.30812073 147.45805931 C212.28149914 151.07939114 212.26072911 154.7007275 212.2401123 158.32209778 C212.22352365 160.5211306 212.2066531 162.72016133 212.18945312 164.91918945 C212.1831765 166.43770256 212.1831765 166.43770256 212.17677307 167.9868927 C212.16842941 168.90200623 212.16008575 169.81711975 212.15148926 170.75996399 C212.14633553 171.55941091 212.14118179 172.35885782 212.13587189 173.1825304 C212 175 212 175 211 176 C209.16427369 176.09905152 207.32472425 176.12799207 205.48632812 176.12939453 C204.30840698 176.13254669 203.13048584 176.13569885 201.91687012 176.13894653 C200.63461548 176.1369223 199.35236084 176.13489807 198.03125 176.1328125 C196.72546997 176.13376923 195.41968994 176.13472595 194.07434082 176.13571167 C191.30687278 176.13718833 188.53943696 176.13503511 185.77197266 176.13037109 C182.21737351 176.12467381 178.66284986 176.12795298 175.10825348 176.13394356 C171.72841286 176.13841747 168.34859277 176.13528886 164.96875 176.1328125 C163.68649536 176.13483673 162.40424072 176.13686096 161.08312988 176.13894653 C159.31624817 176.13421829 159.31624817 176.13421829 157.51367188 176.12939453 C156.47078003 176.12859894 155.42788818 176.12780334 154.35339355 176.12698364 C152 176 152 176 151 175 C150.89637778 173.47102445 150.86204254 171.93729872 150.85523987 170.40483093 C150.84834137 169.4110997 150.84144287 168.41736847 150.83433533 167.39352417 C150.83041527 165.74406296 150.83041527 165.74406296 150.82641602 164.0612793 C150.819729 162.90998032 150.81304199 161.75868134 150.80615234 160.57249451 C150.79205924 158.06085474 150.78017893 155.54920184 150.77020454 153.03754234 C150.75383191 149.05614065 150.73080019 145.07481079 150.70530701 141.09346008 C150.63411575 129.76898246 150.57459819 118.44445706 150.52319336 107.11987305 C150.4947509 100.87064469 150.45928446 94.62149344 150.41653961 88.37234622 C150.39429327 85.06879135 150.37687734 81.76532094 150.36609077 78.46170616 C150.35384538 74.76171556 150.32965326 71.06197143 150.30297852 67.36206055 C150.3020948 65.74599915 150.3020948 65.74599915 150.30119324 64.09729004 C150.20078454 53.5096876 149.75403157 39.93819459 142.65234375 31.375 C137.8271535 27.05162954 132.2315409 25.24630818 126 24 C125.67 65.58 125.34 107.16 125 150 C120.97010444 152.01494778 119.24213111 152.2714601 114.875 152.25 C113.82054687 152.25515625 112.76609375 152.2603125 111.6796875 152.265625 C109 152 109 152 107 150 C106.48510742 147.90307617 106.48510742 147.90307617 106.10546875 145.29296875 C105.9573877 144.32439941 105.80930664 143.35583008 105.65673828 142.35791016 C105.50188965 141.3116748 105.34704102 140.26543945 105.1875 139.1875 C99.83307792 105.32343984 90.96445173 76.41308007 67 51 C65.98873047 49.87464844 65.98873047 49.87464844 64.95703125 48.7265625 C47.07534019 29.6035533 18.61704296 18.21780148 -7 15 C-7.77988281 14.89042969 -8.55976563 14.78085938 -9.36328125 14.66796875 C-40.88330766 10.99144934 -70.30433832 16.84054501 -95.82421875 36.203125 C-98.39644844 38.32740805 -100.68158811 40.60680063 -103 43 C-103.66 43 -104.32 43 -105 43 C-105 43.66 -105 44.32 -105 45 C-105.66 45 -106.32 45 -107 45 C-107 45.66 -107 46.32 -107 47 C-107.66 47 -108.32 47 -109 47 C-109.2371875 47.55300781 -109.474375 48.10601562 -109.71875 48.67578125 C-111.30666579 51.55629922 -113.31060411 53.73135809 -115.5 56.1875 C-121.76612299 63.48690324 -126.40256572 71.58330769 -131 80 C-131.35304199 80.63357422 -131.70608398 81.26714844 -132.06982422 81.91992188 C-146.31212399 107.6910531 -152.96403725 136.57011462 -156.70825195 165.54638672 C-156.85093506 166.6242041 -156.99361816 167.70202148 -157.140625 168.8125 C-157.25954102 169.76769531 -157.37845703 170.72289062 -157.50097656 171.70703125 C-158 174 -158 174 -160 176 C-162.55630493 176.24050903 -162.55630493 176.24050903 -165.82666016 176.22705078 C-167.65833237 176.22682419 -167.65833237 176.22682419 -169.52700806 176.22659302 C-170.86436118 176.21637903 -172.20171265 176.20594702 -173.5390625 176.1953125 C-174.90383701 176.1915828 -176.26861419 176.18873563 -177.63339233 176.18673706 C-181.22720723 176.17909714 -184.82086073 176.15944572 -188.41461182 176.1373291 C-192.08107317 176.11687832 -195.74756057 176.107737 -199.4140625 176.09765625 C-206.60944862 176.07620003 -213.8047017 176.04205992 -221 176 C-221.15575908 168.5716439 -219.89683171 162.2029508 -218.0625 155 C-217.75111084 153.77120117 -217.43972168 152.54240234 -217.11889648 151.27636719 C-212.42383342 133.36339262 -205.8575785 116.25986356 -197 100 C-196.6390625 99.32501465 -196.278125 98.6500293 -195.90625 97.95458984 C-191.18564297 89.14647803 -186.13086717 80.91622959 -180 73 C-179.20458672 71.92662691 -178.41037472 70.85236288 -177.6171875 69.77734375 C-166.69094547 55.18195012 -153.6744531 42.76974095 -139 32 C-138.1646875 31.36964844 -137.329375 30.73929688 -136.46875 30.08984375 C-98.46955938 2.28710261 -46.05159145 -7.74883008 0 0 Z " fill="#FEFEFD" transform="translate(512,170)"/>
<path d="M0 0 C1.72221268 -0.00472824 1.72221268 -0.00472824 3.47921753 -0.009552 C5.34793015 -0.00651566 5.34793015 -0.00651566 7.25439453 -0.00341797 C9.16697556 -0.00485306 9.16697556 -0.00485306 11.11819458 -0.00631714 C13.82004156 -0.0069988 16.52179863 -0.00564481 19.22363281 -0.00097656 C22.6826231 0.00470923 26.14153559 0.00144816 29.60052299 -0.00454903 C32.90181627 -0.00903877 36.20310024 -0.00589136 39.50439453 -0.00341797 C40.74615448 -0.0054422 41.98791443 -0.00746643 43.26730347 -0.009552 C44.42174957 -0.00639984 45.57619568 -0.00324768 46.765625 0 C47.78107391 0.00079559 48.79652283 0.00159119 49.84274292 0.00241089 C52.25333044 0.11708004 54.24586051 0.30857226 56.51220703 1.12939453 C57.81456917 3.73411881 57.82683665 6.22603135 58.05615234 9.09399414 C61.84245044 55.68250809 77.01544399 103.43702996 110.51220703 137.12939453 C111.61457981 138.04701571 112.72522071 138.95480274 113.84423828 139.85205078 C114.72466797 140.60357422 115.60509766 141.35509766 116.51220703 142.12939453 C116.51220703 142.78939453 116.51220703 143.44939453 116.51220703 144.12939453 C117.04458984 144.37431641 117.57697266 144.61923828 118.12548828 144.87158203 C120.52270664 146.13492787 122.73238106 147.58276092 124.97558594 149.09912109 C142.09412235 160.56965555 161.64347775 168.69036096 182.51220703 169.12939453 C183.70974609 169.17966797 184.90728516 169.22994141 186.14111328 169.28173828 C203.41307951 169.79903859 221.07422746 167.4690043 237.51220703 162.12939453 C238.13579102 161.93007324 238.759375 161.73075195 239.40185547 161.52539062 C255.0331648 156.43129358 269.97600645 149.01851903 281.51220703 137.12939453 C282.33205078 136.32501953 283.15189453 135.52064453 283.99658203 134.69189453 C290.96265567 127.59601828 296.75819481 119.84953492 301.51220703 111.12939453 C301.99173828 110.29794922 302.47126953 109.46650391 302.96533203 108.60986328 C314.21276217 87.92051152 317.83753458 63.77152565 320.47412109 40.6784668 C321.002767 36.20588572 321.48405905 32.22035969 323.51220703 28.12939453 C325.97083104 28.07555605 328.42828253 28.03580415 330.88720703 28.00439453 C331.93521484 27.97925781 331.93521484 27.97925781 333.00439453 27.95361328 C334.84118189 27.93595186 336.67822666 28.02636193 338.51220703 28.12939453 C341.09806325 30.71525075 340.77003761 31.74452461 340.79067993 35.34317017 C340.80742516 37.00067543 340.80742516 37.00067543 340.82450867 38.69166565 C340.82666885 39.90942184 340.82882904 41.12717804 340.83105469 42.38183594 C340.84110031 43.65984573 340.85114594 44.93785553 340.86149597 46.2545929 C340.88886132 49.76468026 340.9039646 53.27472736 340.916924 56.78489351 C340.93252608 60.45115577 340.95932554 64.11733542 340.98495483 67.78353882 C341.03179456 74.72851241 341.06851344 81.67350145 341.10162771 88.61855257 C341.1398125 96.52418265 341.18923213 104.42972988 341.23961186 112.33529019 C341.34300892 128.59993219 341.43224393 144.86462009 341.51220703 161.12939453 C343.09985783 160.68098994 344.68539323 160.22509173 346.27001953 159.76611328 C347.15318848 159.5130542 348.03635742 159.25999512 348.94628906 158.99926758 C354.4367438 157.13794596 358.10606349 154.40288799 360.82470703 149.25439453 C365.48660243 138.59578753 365.66100601 127.7943592 365.7175293 116.35766602 C365.72742889 115.10789474 365.73732849 113.85812347 365.74752808 112.57048035 C365.77355825 109.17030058 365.79548429 105.77014231 365.81553006 102.36992526 C365.83752702 98.80649318 365.86484807 95.24310185 365.8915863 91.67970276 C365.94132911 84.9439079 365.98633556 78.20809019 366.02960867 71.472251 C366.07913929 63.79864263 366.13399829 56.12507519 366.18928826 48.4515065 C366.30282534 32.67750707 366.40972497 16.90346989 366.51220703 1.12939453 C369.11716876 -0.17308633 371.02297256 0.0023158 373.93994141 0 C375.07451782 -0.00315216 376.20909424 -0.00630432 377.37805176 -0.009552 C379.22336487 -0.00651566 379.22336487 -0.00651566 381.10595703 -0.00341797 C382.36355835 -0.00437469 383.62115967 -0.00533142 384.91687012 -0.00631714 C387.58003151 -0.00699869 390.24310161 -0.00564539 392.90625 -0.00097656 C396.32283954 0.00472064 399.73935053 0.00144067 403.15593719 -0.00454903 C406.41011331 -0.00902772 409.66427989 -0.0058936 412.91845703 -0.00341797 C414.14866577 -0.0054422 415.37887451 -0.00746643 416.6463623 -0.009552 C418.34822693 -0.00482376 418.34822693 -0.00482376 420.08447266 0 C421.0865979 0.00079559 422.08872314 0.00159119 423.12121582 0.00241089 C425.51220703 0.12939453 425.51220703 0.12939453 427.51220703 1.12939453 C427.51855494 1.95983717 427.51855494 1.95983717 427.52503109 2.80705643 C427.62903727 16.37506519 427.73782114 29.94302873 427.85154629 43.51095963 C427.90640655 50.07272095 427.95976179 56.63448692 428.00952148 63.19628906 C428.05771647 69.54410905 428.11006858 75.89188306 428.16514778 82.23964691 C428.18532488 84.64576808 428.20407399 87.05190172 428.22128105 89.45804596 C428.30296366 100.75987767 428.42132524 112.05214739 428.94995117 123.34326172 C428.98536483 124.13948063 429.02077848 124.93569954 429.05726528 125.7560463 C429.61503124 136.31463629 431.60748392 145.98541664 439.07470703 153.81689453 C450.51601829 162.53408406 467.17423313 162.38888329 480.85498047 163.43261719 C481.82854492 163.50915527 482.80210937 163.58569336 483.80517578 163.66455078 C484.68713623 163.73037354 485.56909668 163.79619629 486.4777832 163.86401367 C488.51220703 164.12939453 488.51220703 164.12939453 489.51220703 165.12939453 C489.61138273 167.27333972 489.64190853 169.42066185 489.63720703 171.56689453 C489.63978516 172.74123047 489.64236328 173.91556641 489.64501953 175.12548828 C489.51220703 178.12939453 489.51220703 178.12939453 488.51220703 180.12939453 C487.46064926 180.09975616 486.40909149 180.0701178 485.32566833 180.0395813 C458.09990996 179.28535717 430.89326195 178.96802707 403.6574707 178.99902344 C398.57053679 179.0047469 393.48365497 179.00131469 388.39672279 178.99557114 C363.75142086 178.97217951 339.1430196 179.26453682 314.51220703 180.12939453 C312.89627338 176.35348703 312.31487357 173.9826325 312.82470703 169.87939453 C312.97359375 168.57228516 312.97359375 168.57228516 313.12548828 167.23876953 C313.51220703 165.12939453 313.51220703 165.12939453 314.51220703 164.12939453 C317.16683824 163.67479595 319.83409841 163.42696216 322.51220703 163.12939453 C322.01384924 156.52615379 320.72844137 149.98483293 317.51220703 144.12939453 C315.12430681 142.28473184 313.50968338 141.1964035 310.47705078 140.99267578 C303.07818514 142.63211614 297.61906938 146.80681103 291.51220703 151.12939453 C259.5658264 173.03664537 224.92101517 185.83058952 186.01342773 185.46557617 C183.31545312 185.44181302 180.61846453 185.4450718 177.92041016 185.45166016 C162.99239352 185.4292834 148.7385961 184.02724976 134.19970703 180.44189453 C133.12994629 180.17844238 132.06018555 179.91499023 130.95800781 179.64355469 C98.63332989 171.43326991 68.28296328 154.79412672 45.51220703 130.12939453 C45.51220703 129.46939453 45.51220703 128.80939453 45.51220703 128.12939453 C44.85220703 128.12939453 44.19220703 128.12939453 43.51220703 128.12939453 C12.69391273 95.34718932 -6.67764187 45.76135523 -7.48779297 1.12939453 C-4.86836713 -0.18031839 -2.93327532 0.0023018 0 0 Z " fill="#FEFEFD" transform="translate(296.48779296875,450.87060546875)"/>
<path d="M0 0 C1.53912489 1.53912489 1.13465802 2.96151835 1.14526367 5.10498047 C1.15164352 5.97613495 1.15802338 6.84728943 1.16459656 7.74484253 C1.16570938 8.69271637 1.1668222 9.64059021 1.16796875 10.6171875 C1.17296135 12.06933151 1.17296135 12.06933151 1.17805481 13.55081177 C1.18312878 15.60369388 1.18546299 17.65658428 1.18530273 19.70947266 C1.18748586 22.85463044 1.20562738 25.99943576 1.22460938 29.14453125 C1.22754383 31.13541546 1.22952828 33.12630135 1.23046875 35.1171875 C1.23765427 36.06101288 1.24483978 37.00483826 1.25224304 37.9772644 C1.24916641 38.85472321 1.24608978 39.73218201 1.24291992 40.63623047 C1.24434494 41.4082077 1.24576996 42.18018494 1.24723816 42.97555542 C1 45 1 45 -1 48 C-3.859375 48.4765625 -3.859375 48.4765625 -7 48 C-9.203125 46.0859375 -9.203125 46.0859375 -11.25 43.375 C-12.39082031 41.88419922 -12.39082031 41.88419922 -13.5546875 40.36328125 C-14.3729969 39.24452492 -15.1879582 38.1233139 -16 37 C-16.43989258 36.39591309 -16.87978516 35.79182617 -17.33300781 35.16943359 C-19.52413911 32.15132693 -21.69275393 29.11873982 -23.8359375 26.06640625 C-25.52128471 23.67832401 -27.23976817 21.33238589 -29 19 C-29.01981934 19.80743652 -29.03963867 20.61487305 -29.06005859 21.44677734 C-29.15505899 25.08985875 -29.26483912 28.73234686 -29.375 32.375 C-29.42140625 34.28152344 -29.42140625 34.28152344 -29.46875 36.2265625 C-29.52675781 38.04414063 -29.52675781 38.04414063 -29.5859375 39.8984375 C-29.6173584 41.01911621 -29.6487793 42.13979492 -29.68115234 43.29443359 C-30 46 -30 46 -32 48 C-35.0625 48.1875 -35.0625 48.1875 -38 48 C-39 47 -39 47 -39.12025452 45.09544373 C-39.11803391 44.26271439 -39.11581329 43.42998505 -39.11352539 42.57202148 C-39.11344986 41.63112167 -39.11337433 40.69022186 -39.11329651 39.72080994 C-39.10813522 38.69790359 -39.10297394 37.67499725 -39.09765625 36.62109375 C-39.0962413 35.57929459 -39.09482635 34.53749542 -39.09336853 33.46412659 C-39.0877508 30.12188906 -39.0751953 26.77971743 -39.0625 23.4375 C-39.05748728 21.17773534 -39.05292398 18.91796963 -39.04882812 16.65820312 C-39.03777561 11.10544609 -39.02102024 5.55272775 -39 0 C-30.78960625 -0.56054897 -30.78960625 -0.56054897 -27.89599609 1.49365234 C-27.44305176 2.18410645 -26.99010742 2.87456055 -26.5234375 3.5859375 C-25.73996948 4.72881226 -25.73996948 4.72881226 -24.94067383 5.89477539 C-24.42400146 6.71324951 -23.9073291 7.53172363 -23.375 8.375 C-22.82158936 9.19540771 -22.26817871 10.01581543 -21.69799805 10.86108398 C-20.10701601 13.22524919 -18.55322444 15.61094568 -17 18 C-15.62238793 20.03445051 -14.22059762 22.04883221 -12.8125 24.0625 C-12.30332031 24.81660156 -11.79414062 25.57070313 -11.26953125 26.34765625 C-10.08356787 28.14021093 -10.08356787 28.14021093 -8 29 C-8.33 28.34 -8.66 27.68 -9 27 C-9.08510205 25.0406396 -9.10717656 23.07837206 -9.09765625 21.1171875 C-9.09443359 19.95058594 -9.09121094 18.78398437 -9.08789062 17.58203125 C-9.07951172 16.35871094 -9.07113281 15.13539063 -9.0625 13.875 C-9.05798828 12.64394531 -9.05347656 11.41289062 -9.04882812 10.14453125 C-9.0370133 7.09630608 -9.02054028 4.04817686 -9 1 C-5.52718042 -0.9326352 -3.86480758 -1.14899685 0 0 Z " fill="#FDFDFC" transform="translate(578,375)"/>
<path d="M0 0 C1.20785156 -0.04576172 2.41570313 -0.09152344 3.66015625 -0.13867188 C11.65010993 -0.23865497 17.14137715 0.74803854 23 6.4375 C28.97705293 14.27782041 29.05024388 23.00512098 28 32.4375 C26.21915758 39.39326098 21.2490884 43.86290583 15.25048828 47.49755859 C12.4470492 48.66844604 10.24603985 48.69637068 7.2109375 48.703125 C6.10492187 48.70570313 4.99890625 48.70828125 3.859375 48.7109375 C2.70953125 48.70320313 1.5596875 48.69546875 0.375 48.6875 C-0.78257812 48.69523437 -1.94015625 48.70296875 -3.1328125 48.7109375 C-4.78796875 48.70707031 -4.78796875 48.70707031 -6.4765625 48.703125 C-7.48799316 48.70086914 -8.49942383 48.69861328 -9.54150391 48.69628906 C-12 48.4375 -12 48.4375 -14 46.4375 C-14.24723816 44.49534607 -14.24723816 44.49534607 -14.24291992 42.09545898 C-14.24599655 41.1979039 -14.24907318 40.30034882 -14.25224304 39.37559509 C-14.24505753 38.40473465 -14.23787201 37.43387421 -14.23046875 36.43359375 C-14.23001053 35.4399733 -14.22955231 34.44635284 -14.2290802 33.42262268 C-14.22605609 31.32022916 -14.2181651 29.21783791 -14.20581055 27.11547852 C-14.18755565 23.88484831 -14.1853008 20.65450451 -14.18554688 17.42382812 C-14.1806318 15.38541417 -14.17480353 13.34700217 -14.16796875 11.30859375 C-14.16685593 10.33570908 -14.1657431 9.3628244 -14.16459656 8.36045837 C-14.15821671 7.46605545 -14.15183685 6.57165253 -14.14526367 5.65014648 C-14.14145187 4.85897934 -14.13764008 4.06781219 -14.13371277 3.25267029 C-13.74883885 -1.97204921 -3.87484403 0.05846539 0 0 Z M-3 6.4375 C-3 17.9875 -3 29.5375 -3 41.4375 C9.37530495 42.79100594 9.37530495 42.79100594 15 37.4375 C18.83343746 31.22468756 18.81888073 24.58245935 18 17.4375 C16.43520855 12.73510107 13.99965701 10.43724276 10 7.4375 C5.71 7.1075 1.42 6.7775 -3 6.4375 Z " fill="#FEFEFE" transform="translate(820,374.5625)"/>
<path d="M0 0 C0.0505939 6.51445205 0.08568856 13.02885368 0.10986328 19.54345703 C0.11993825 21.76092421 0.13359859 23.97837805 0.15087891 26.19580078 C0.17506163 29.37796312 0.18646797 32.55995024 0.1953125 35.7421875 C0.20563507 36.73805878 0.21595764 37.73393005 0.22659302 38.75997925 C0.22681961 40.14118454 0.22681961 40.14118454 0.22705078 41.55029297 C0.231492 42.3630368 0.23593323 43.17578064 0.24050903 44.01315308 C0 46 0 46 -2 48 C-5.5625 48.1875 -5.5625 48.1875 -9 48 C-10 47 -10 47 -10.11352539 45.05053711 C-10.10828857 44.2178833 -10.10305176 43.38522949 -10.09765625 42.52734375 C-10.09443359 41.62822266 -10.09121094 40.72910156 -10.08789062 39.80273438 C-10.07951172 38.85720703 -10.07113281 37.91167969 -10.0625 36.9375 C-10.05798828 35.98810547 -10.05347656 35.03871094 -10.04882812 34.06054688 C-10.03700128 31.70700469 -10.01906521 29.35349468 -10 27 C-16.27 27.33 -22.54 27.66 -29 28 C-28.92106277 33.45979658 -28.92106277 33.45979658 -28.81982422 38.91918945 C-28.81233154 39.94338989 -28.81233154 39.94338989 -28.8046875 40.98828125 C-28.79421387 41.68477783 -28.78374023 42.38127441 -28.77294922 43.09887695 C-29 45 -29 45 -31 48 C-33.7427508 48.47114738 -36.19558897 48.17805784 -39 48 C-40.57300328 46.42699672 -40.12725504 44.86315955 -40.12939453 42.6796875 C-40.13254669 41.76203613 -40.13569885 40.84438477 -40.13894653 39.89892578 C-40.1369223 38.90103027 -40.13489807 37.90313477 -40.1328125 36.875 C-40.13376923 35.85776855 -40.13472595 34.84053711 -40.13571167 33.79248047 C-40.13639361 31.63704364 -40.13453835 29.48160478 -40.13037109 27.32617188 C-40.12502305 24.01427629 -40.13031563 20.70251633 -40.13671875 17.390625 C-40.13605797 15.30208303 -40.13477681 13.21354115 -40.1328125 11.125 C-40.13483673 10.12710449 -40.13686096 9.12920898 -40.13894653 8.10107422 C-40.13579437 7.18342285 -40.13264221 6.26577148 -40.12939453 5.3203125 C-40.12859894 4.50836426 -40.12780334 3.69641602 -40.12698364 2.85986328 C-40 1 -40 1 -39 0 C-37.48071962 -0.07179964 -35.95832518 -0.08392007 -34.4375 -0.0625 C-33.61121094 -0.05347656 -32.78492188 -0.04445313 -31.93359375 -0.03515625 C-31.29550781 -0.02355469 -30.65742187 -0.01195312 -30 0 C-28.47554171 6.27788731 -28.93995787 12.57549184 -29 19 C-23.06 19 -17.12 19 -11 19 C-10.67 13.06 -10.34 7.12 -10 1 C-3.25 -1.25 -3.25 -1.25 0 0 Z " fill="#FDFDFD" transform="translate(910,375)"/>
<path d="M0 0 C0.02526945 6.6752034 0.04283268 13.35039457 0.05493164 20.02563477 C0.05997325 22.29842591 0.06680637 24.5712138 0.07543945 26.84399414 C0.08751261 30.10303551 0.09322987 33.36203417 0.09765625 36.62109375 C0.10281754 37.64400009 0.10797882 38.66690643 0.11329651 39.72080994 C0.11337204 40.66170975 0.11344757 41.60260956 0.11352539 42.57202148 C0.115746 43.40475082 0.11796661 44.23748016 0.12025452 45.09544373 C0 47 0 47 -1 48 C-2.8125 48.1328125 -2.8125 48.1328125 -5 48.125 C-5.721875 48.12757813 -6.44375 48.13015625 -7.1875 48.1328125 C-9 48 -9 48 -10 47 C-10.08669432 45.5112814 -10.10703494 44.018555 -10.09765625 42.52734375 C-10.09443359 41.62822266 -10.09121094 40.72910156 -10.08789062 39.80273438 C-10.07951172 38.85720703 -10.07113281 37.91167969 -10.0625 36.9375 C-10.05798828 35.98810547 -10.05347656 35.03871094 -10.04882812 34.06054688 C-10.03700128 31.70700469 -10.01906521 29.35349468 -10 27 C-16.27 27 -22.54 27 -29 27 C-28.96046729 33.16288593 -28.96046729 33.16288593 -28.90991211 39.32568359 C-28.90741455 40.09219238 -28.90491699 40.85870117 -28.90234375 41.6484375 C-28.89710693 42.43395996 -28.89187012 43.21948242 -28.88647461 44.02880859 C-29 46 -29 46 -30 48 C-36.15234375 48.09765625 -36.15234375 48.09765625 -38 48 C-39.57300328 46.42699672 -39.12725504 44.86315955 -39.12939453 42.6796875 C-39.13254669 41.76203613 -39.13569885 40.84438477 -39.13894653 39.89892578 C-39.1369223 38.90103027 -39.13489807 37.90313477 -39.1328125 36.875 C-39.13376923 35.85776855 -39.13472595 34.84053711 -39.13571167 33.79248047 C-39.13639361 31.63704364 -39.13453835 29.48160478 -39.13037109 27.32617188 C-39.12502305 24.01427629 -39.13031563 20.70251633 -39.13671875 17.390625 C-39.13605797 15.30208303 -39.13477681 13.21354115 -39.1328125 11.125 C-39.13483673 10.12710449 -39.13686096 9.12920898 -39.13894653 8.10107422 C-39.13579437 7.18342285 -39.13264221 6.26577148 -39.12939453 5.3203125 C-39.12859894 4.50836426 -39.12780334 3.69641602 -39.12698364 2.85986328 C-39 1 -39 1 -38 0 C-36.1875 -0.1328125 -36.1875 -0.1328125 -34 -0.125 C-33.278125 -0.12757813 -32.55625 -0.13015625 -31.8125 -0.1328125 C-30 0 -30 0 -29 1 C-28.91348389 2.41570123 -28.89295096 3.835595 -28.90234375 5.25390625 C-28.90556641 6.10791016 -28.90878906 6.96191406 -28.91210938 7.84179688 C-28.92048828 8.73962891 -28.92886719 9.63746094 -28.9375 10.5625 C-28.94201172 11.46419922 -28.94652344 12.36589844 -28.95117188 13.29492188 C-28.96299775 15.53001314 -28.9794778 17.76497437 -29 20 C-27.948125 19.87431641 -27.948125 19.87431641 -26.875 19.74609375 C-25.92625 19.64425781 -24.9775 19.54242188 -24 19.4375 C-23.071875 19.33308594 -22.14375 19.22867187 -21.1875 19.12109375 C-18 19 -18 19 -10 20 C-10 13.73 -10 7.46 -10 1 C-4.375 -1.25 -4.375 -1.25 0 0 Z " fill="#FEFEFD" transform="translate(398,375)"/>
<path d="M0 0 C2.97 0 5.94 0 9 0 C10.1517372 2.76416929 11.30328707 5.52841509 12.45410156 8.29296875 C13.51467052 10.8388819 14.57978247 13.38284192 15.64746094 15.92578125 C17.10446581 19.39859939 18.54853203 22.87661038 19.98632812 26.35742188 C20.5854239 27.80183521 21.1887086 29.24451733 21.79589844 30.68554688 C22.68448449 32.79653147 23.55846257 34.91305185 24.4296875 37.03125 C24.70352264 37.67292114 24.97735779 38.31459229 25.25949097 38.97570801 C26.61880222 42.32451639 27.44757565 44.57203816 26 48 C23.36 48 20.72 48 18 48 C16.02 44.04 14.04 40.08 12 36 C6.72 36 1.44 36 -4 36 C-5.98 39.96 -7.96 43.92 -10 48 C-12.64 48 -15.28 48 -18 48 C-18.25390039 43.99356831 -17.559528 41.52804781 -15.78515625 37.94921875 C-12.4907734 31.02741752 -9.92030888 23.89726713 -7.30664062 16.69726562 C-5.18190838 10.92168909 -2.87480087 5.44321707 0 0 Z M3 13 C2.16260219 15.1234016 1.33019717 17.2487728 0.5 19.375 C0.0359375 20.55835938 -0.428125 21.74171875 -0.90625 22.9609375 C-2.11287794 25.7753244 -2.11287794 25.7753244 -2 28 C1.63 28 5.26 28 9 28 C8.319375 25.40125 8.319375 25.40125 7.625 22.75 C7.36976563 21.77546875 7.11453125 20.8009375 6.8515625 19.796875 C6.10401491 17.34162697 5.22876183 15.24382595 4 13 C3.67 13 3.34 13 3 13 Z " fill="#FEFEFD" transform="translate(761,375)"/>
<path d="M0 0 C2.97 0 5.94 0 9 0 C13.12999474 7.80422711 16.43732093 15.83496021 19.625 24.0625 C20.10195313 25.27744141 20.57890625 26.49238281 21.0703125 27.74414062 C23.55616794 34.1141452 25.91135411 40.48875156 28 47 C27 48 27 48 24.93359375 48.09765625 C21.46679688 48.04882812 21.46679688 48.04882812 18 48 C15.525 42.06 15.525 42.06 13 36 C7.39 36 1.78 36 -4 36 C-4.804375 37.794375 -5.60875 39.58875 -6.4375 41.4375 C-8.875 46.875 -8.875 46.875 -10 48 C-12.33297433 48.04092937 -14.66705225 48.04241723 -17 48 C-18.33441286 43.99676141 -17.27168385 42.54473406 -15.68359375 38.671875 C-15.30328758 37.7327829 -15.30328758 37.7327829 -14.91529846 36.77471924 C-14.09820035 34.76274391 -13.26819055 32.75639634 -12.4375 30.75 C-11.90472075 29.44567088 -11.37281105 28.14098621 -10.84179688 26.8359375 C-9.77747109 24.22286793 -8.70843034 21.61180084 -7.63623047 19.00195312 C-5.04664376 12.68577373 -2.5255547 6.34198632 0 0 Z M4 13 C3.16013916 14.93467942 2.32831973 16.87285129 1.5 18.8125 C1.0359375 19.89144531 0.571875 20.97039062 0.09375 22.08203125 C-1.17549303 24.94882024 -1.17549303 24.94882024 -1 28 C2.63 28 6.26 28 10 28 C8.35 23.05 6.7 18.1 5 13 C4.67 13 4.34 13 4 13 Z " fill="#FEFDFD" transform="translate(616,375)"/>
<path d="M0 0 C1.34888732 0.00015905 2.69778075 0.00584927 4.04663086 0.01586914 C5.10991859 0.01799156 5.10991859 0.01799156 6.19468689 0.02015686 C8.46699173 0.02577096 10.73919936 0.03832576 13.01147461 0.05102539 C14.54858257 0.05603858 16.08569206 0.0606018 17.62280273 0.06469727 C21.39823103 0.07574497 25.17358632 0.09301898 28.94897461 0.11352539 C29.44397461 2.58852539 29.44397461 2.58852539 29.94897461 5.11352539 C26.69507473 7.28279198 25.81501503 7.35432588 22.06225586 7.30883789 C21.12446289 7.30239258 20.18666992 7.29594727 19.22045898 7.28930664 C17.75576172 7.26416992 17.75576172 7.26416992 16.26147461 7.23852539 C15.2734082 7.22950195 14.2853418 7.22047852 13.26733398 7.21118164 C10.82777755 7.18761105 8.3883456 7.15174008 5.94897461 7.11352539 C5.94897461 11.40352539 5.94897461 15.69352539 5.94897461 20.11352539 C12.87897461 20.11352539 19.80897461 20.11352539 26.94897461 20.11352539 C27.60897461 21.43352539 28.26897461 22.75352539 28.94897461 24.11352539 C26.94897461 27.11352539 26.94897461 27.11352539 24.88598633 27.54589844 C24.05856934 27.57208252 23.23115234 27.5982666 22.37866211 27.62524414 C21.03481445 27.67841797 21.03481445 27.67841797 19.66381836 27.73266602 C18.2580957 27.76650391 18.2580957 27.76650391 16.82397461 27.80102539 C15.8790918 27.83518555 14.93420898 27.8693457 13.96069336 27.90454102 C11.62387578 27.98715578 9.28644286 28.05201307 6.94897461 28.11352539 C6.61897461 32.40352539 6.28897461 36.69352539 5.94897461 41.11352539 C8.53032227 41.09612305 8.53032227 41.09612305 11.16381836 41.07836914 C13.4047027 41.06899306 15.6455882 41.05989266 17.88647461 41.05102539 C19.0227832 41.04264648 20.1590918 41.03426758 21.32983398 41.02563477 C22.40942383 41.02241211 23.48901367 41.01918945 24.60131836 41.01586914 C26.10166626 41.00801392 26.10166626 41.00801392 27.63232422 41 C29.94897461 41.11352539 29.94897461 41.11352539 30.94897461 42.11352539 C31.07397461 44.61352539 31.07397461 44.61352539 30.94897461 47.11352539 C29.2440458 48.8184542 27.103632 48.24156959 24.82995605 48.25247192 C24.11641968 48.25044769 23.4028833 48.24842346 22.66772461 48.24633789 C21.93904175 48.24729462 21.21035889 48.24825134 20.45959473 48.24923706 C18.91617751 48.24991875 17.37275744 48.24806527 15.8293457 48.24389648 C13.45900061 48.23854801 11.08884502 48.24384181 8.71850586 48.25024414 C7.22241169 48.24958336 5.72631764 48.24830219 4.23022461 48.24633789 C3.15992004 48.24937424 3.15992004 48.24937424 2.06799316 48.25247192 C-2.93607348 48.2284773 -2.93607348 48.2284773 -4.05102539 47.11352539 C-4.14916526 45.67612186 -4.17900819 44.23396212 -4.18041992 42.79321289 C-4.18357208 41.87556152 -4.18672424 40.95791016 -4.18997192 40.01245117 C-4.18794769 39.01455566 -4.18592346 38.01666016 -4.18383789 36.98852539 C-4.18479462 35.97129395 -4.18575134 34.9540625 -4.18673706 33.90600586 C-4.187419 31.75056903 -4.18556374 29.59513017 -4.18139648 27.43969727 C-4.17604844 24.12780168 -4.18134102 20.81604172 -4.18774414 17.50415039 C-4.18708336 15.41560842 -4.1858022 13.32706654 -4.18383789 11.23852539 C-4.18586212 10.24062988 -4.18788635 9.24273437 -4.18997192 8.21459961 C-4.18681976 7.29694824 -4.1836676 6.37929688 -4.18041992 5.43383789 C-4.17962433 4.62188965 -4.17882874 3.80994141 -4.17800903 2.97338867 C-3.95998853 -0.21984413 -3.25746019 0.12120661 0 0 Z " fill="#FEFEFD" transform="translate(426.051025390625,374.886474609375)"/>
<path d="M0 0 C3.87474457 -0.11668214 7.74903396 -0.18741231 11.625 -0.25 C13.26662109 -0.30027344 13.26662109 -0.30027344 14.94140625 -0.3515625 C21.29605605 -0.42858856 25.20119586 -0.33414531 30 4 C32.90228418 7.30259924 33.91559053 9.88157448 34.25 14.3125 C33.93534408 18.95367488 32.88640961 22.08781977 29.5703125 25.44921875 C24.95869188 29.45283964 21.77390685 30.12660115 15.8125 30.0625 C14.18248047 30.04896484 14.18248047 30.04896484 12.51953125 30.03515625 C11.68808594 30.02355469 10.85664062 30.01195312 10 30 C10.01160156 31.21558594 10.02320313 32.43117188 10.03515625 33.68359375 C10.04453278 35.26822764 10.05363313 36.85286318 10.0625 38.4375 C10.07087891 39.23994141 10.07925781 40.04238281 10.08789062 40.86914062 C10.0965143 42.91295221 10.0522815 44.95683902 10 47 C9 48 9 48 6.93359375 48.09765625 C6.10988281 48.08605469 5.28617188 48.07445312 4.4375 48.0625 C3.61121094 48.05347656 2.78492188 48.04445313 1.93359375 48.03515625 C1.29550781 48.02355469 0.65742187 48.01195312 0 48 C-1.04270912 42.8661849 -1.14540611 37.9461241 -1.1328125 32.734375 C-1.13376923 31.85976624 -1.13472595 30.98515747 -1.13571167 30.08404541 C-1.13638941 28.24515714 -1.13456357 26.40626643 -1.13037109 24.56738281 C-1.12499121 21.7453887 -1.13034304 18.92355187 -1.13671875 16.1015625 C-1.1360584 14.31249965 -1.13477814 12.52343689 -1.1328125 10.734375 C-1.13483673 9.88856873 -1.13686096 9.04276245 -1.13894653 8.17132568 C-1.11497642 2.22995283 -1.11497642 2.22995283 0 0 Z M10 6 C9.22829031 11.40196781 8.80846363 16.54121353 9 22 C10.56977574 23.56977574 12.14196387 23.20737081 14.3125 23.25 C17.10757134 23.1966759 18.8849938 23.04600248 21.5 22 C23.77371794 18.96837608 24.03769153 15.73899997 24 12 C23.24849977 8.72226496 23.24849977 8.72226496 20 7 C17.49103314 6.54398739 17.49103314 6.54398739 14.8125 6.375 C13.91144531 6.30023438 13.01039063 6.22546875 12.08203125 6.1484375 C11.39496094 6.09945313 10.70789063 6.05046875 10 6 Z " fill="#FEFEFD" transform="translate(695,375)"/>
<path d="M0 0 C2.5 1.875 2.5 1.875 4 4 C4.25 6.75 4.25 6.75 4 9 C1.1875 10.125 1.1875 10.125 -2 11 C-2.99 10.34 -3.98 9.68 -5 9 C-5 8.34 -5 7.68 -5 7 C-9.93797978 5.61895535 -13.80608629 4.73040658 -18.875 5.875 C-23.01425255 8.68969173 -24.7083752 11.17947174 -26 16 C-26.75371627 22.53506263 -26.86527279 28.4168282 -23 34 C-20.95943261 36.4656856 -20.13026076 36.95657975 -17 38 C-10.95680353 38.52096521 -7.38789131 37.60196896 -2.078125 34.6796875 C0 34 0 34 2.265625 34.8828125 C2.83796875 35.25148438 3.4103125 35.62015625 4 36 C4 38.68044135 3.51818175 40.40085235 1.75 42.4453125 C-3.03708383 46.18522174 -7.76697245 46.46671575 -13.625 46.5 C-14.35332031 46.50620361 -15.08164062 46.51240723 -15.83203125 46.51879883 C-21.92642049 46.37656866 -26.05362217 44.72005483 -30.6875 40.625 C-36.88117819 33.59433827 -37.37405453 27.70691539 -37.26953125 18.546875 C-36.73142903 11.46576178 -34.31204396 6.91837855 -29.1875 2.0625 C-20.84929964 -4.57120637 -9.31890758 -5.02448012 0 0 Z " fill="#FEFEFE" transform="translate(333,377)"/>
<path d="M0 0 C13.86 0 27.72 0 42 0 C42 1.98 42 3.96 42 6 C39.11584117 7.44207941 36.58278472 7.09394887 33.375 7.0625 C32.18648438 7.05347656 30.99796875 7.04445313 29.7734375 7.03515625 C28.85820312 7.02355469 27.94296875 7.01195312 27 7 C26.97494385 8.20648193 26.9498877 9.41296387 26.92407227 10.65600586 C26.83017477 15.11575661 26.72991167 19.57534513 26.62768555 24.03491211 C26.58426959 25.96814185 26.54259958 27.90141159 26.50268555 29.8347168 C26.44514369 32.60738202 26.3814038 35.37984457 26.31640625 38.15234375 C26.29133751 39.45702858 26.29133751 39.45702858 26.26576233 40.78807068 C26.11387171 46.88612829 26.11387171 46.88612829 25 48 C23.1875 48.1328125 23.1875 48.1328125 21 48.125 C20.278125 48.12757813 19.55625 48.13015625 18.8125 48.1328125 C17 48 17 48 16 47 C15.91131701 44.04294679 15.88479704 41.10934944 15.90234375 38.15234375 C15.9037587 37.2659169 15.90517365 36.37949005 15.90663147 35.46620178 C15.91224785 32.62326746 15.92480309 29.78041069 15.9375 26.9375 C15.94251289 25.01497509 15.94707616 23.09244896 15.95117188 21.16992188 C15.96222259 16.44658451 15.97949817 11.72330542 16 7 C15.01257813 7.01160156 14.02515625 7.02320313 13.0078125 7.03515625 C11.72648437 7.04417969 10.44515625 7.05320312 9.125 7.0625 C7.84882813 7.07410156 6.57265625 7.08570313 5.2578125 7.09765625 C2 7 2 7 0 6 C0 4.02 0 2.04 0 0 Z " fill="#FDFDFD" transform="translate(476,375)"/>
<path d="M0 0 C0.02529825 6.37206172 0.04284496 12.74411054 0.05493164 19.11621094 C0.05996891 21.28516117 0.06679891 23.454108 0.07543945 25.62304688 C0.08753151 28.73568563 0.09323428 31.8482796 0.09765625 34.9609375 C0.10281754 35.934935 0.10797882 36.9089325 0.11329651 37.91244507 C0.11337204 38.81322784 0.11344757 39.71401062 0.11352539 40.64208984 C0.115746 41.43706879 0.11796661 42.23204773 0.12025452 43.05111694 C0 45 0 45 -1 47 C-2.47906892 47.02689216 -3.95827483 47.04634621 -5.4375 47.0625 C-6.26121094 47.07410156 -7.08492187 47.08570313 -7.93359375 47.09765625 C-10 47 -10 47 -11 46 C-11.09295815 44.55710213 -11.11746513 43.10970215 -11.11352539 41.66381836 C-11.11344986 40.7429393 -11.11337433 39.82206024 -11.11329651 38.87327576 C-11.10813522 37.87224319 -11.10297394 36.87121063 -11.09765625 35.83984375 C-11.0962413 34.82024063 -11.09482635 33.80063751 -11.09336853 32.75013733 C-11.08775097 29.47922893 -11.0751955 26.20838787 -11.0625 22.9375 C-11.05748726 20.72591244 -11.05292396 18.51432382 -11.04882812 16.30273438 C-11.03777584 10.86846643 -11.02102063 5.43423803 -11 0 C-6.80715834 -2.50457356 -4.54961843 -1.57486792 0 0 Z " fill="#FEFEFE" transform="translate(944,376)"/>
<path d="" fill="#FFFFFF" transform="translate(0,0)"/>
<path d="" fill="#FFFFFF" transform="translate(0,0)"/>
</svg>
