<svg version="1.1" id="Layer_1" xmlns="http://www.w3.org/2000/svg" xmlns:xlink="http://www.w3.org/1999/xlink" x="0px" y="0px"
	 width="100%" viewBox="0 0 1248 832" enable-background="new 0 0 1248 832" xml:space="preserve">
<path fill="#010101" opacity="1.000000" stroke="none" 
	d="
M866.000000,833.000000 
	C577.367920,833.000000 289.235809,833.000000 1.051863,833.000000 
	C1.051863,555.734497 1.051863,278.469025 1.051863,1.101777 
	C416.882233,1.101777 832.764465,1.101777 1248.823364,1.101777 
	C1248.823364,278.333252 1248.823364,555.666626 1248.823364,833.000000 
	C1121.468750,833.000000 993.984375,833.000000 866.000000,833.000000 
M665.739197,270.500122 
	C665.739197,295.585999 665.739197,320.671906 665.739197,345.875641 
	C685.488281,345.875641 704.674377,345.875641 724.081421,345.875641 
	C724.081421,343.812469 724.080688,342.156128 724.081543,340.499817 
	C724.099060,306.673645 723.945923,272.845917 724.253113,239.022400 
	C724.331116,230.434662 725.221680,221.727905 726.929443,213.317581 
	C728.572937,205.223785 732.483093,197.870132 740.925964,194.606888 
	C744.915283,193.065002 749.156250,191.714935 753.380371,191.322128 
	C769.011414,189.868622 784.614136,190.004684 800.151245,192.905075 
	C841.027771,200.535797 858.647339,221.402466 868.694519,254.718933 
	C874.936035,275.415985 876.578918,296.907623 875.254028,318.506927 
	C874.698853,327.556824 873.419067,336.562286 872.434753,345.910828 
	C874.064209,345.984436 875.694397,346.119720 877.324768,346.122192 
	C893.487915,346.146759 909.656128,345.925873 925.811218,346.290375 
	C930.849609,346.404053 932.719910,344.606476 933.746094,339.960541 
	C937.701782,322.051361 938.882568,303.969452 936.666260,285.823669 
	C934.303284,266.476837 928.279785,248.297760 916.660522,232.324631 
	C892.390198,198.959900 857.465515,184.926941 818.353516,180.342361 
	C797.776611,177.930374 776.788696,178.817795 755.982422,178.611801 
	C710.837219,178.164841 665.688904,178.039597 620.543335,177.618942 
	C611.687561,177.536438 611.802917,177.189117 612.295593,186.136353 
	C612.462219,189.161743 613.703003,190.248795 616.575623,190.282898 
	C618.283508,190.303177 619.985779,190.805496 621.956238,191.135605 
	C621.328003,195.168472 620.834961,198.612946 620.230103,202.037643 
	C620.059326,203.004486 619.517517,203.899902 619.218872,204.850983 
	C615.404297,216.997238 607.746582,219.617737 597.263672,212.345871 
	C590.325500,207.532928 583.550476,202.464203 576.430969,197.936890 
	C555.194580,184.432556 532.437744,174.913071 507.144379,172.264847 
	C486.812683,170.136108 466.610748,170.530670 446.451813,174.318100 
	C422.779724,178.765579 400.636536,187.157196 380.811279,200.723450 
	C333.462158,233.124039 307.504700,279.548767 294.795990,334.363525 
	C293.925415,338.118591 293.446686,341.964478 292.766022,345.881439 
	C313.283905,345.881439 333.052368,345.881439 352.957581,345.881439 
	C353.197968,344.434998 353.455353,343.315430 353.561920,342.181732 
	C355.767059,318.721741 360.861298,295.887115 369.401550,273.946625 
	C378.959991,249.390381 391.877747,226.902802 412.168396,209.389999 
	C428.662231,195.154282 447.281250,185.758102 469.286621,183.437454 
	C490.331360,181.218094 510.759827,183.591400 530.813904,190.078522 
	C561.885437,200.129608 585.775757,218.993286 601.651917,247.703491 
	C612.952209,268.138824 617.184937,290.647522 620.715698,313.336029 
	C621.944153,321.230164 621.775696,321.256378 629.809753,321.287079 
	C629.976379,321.287720 630.146484,321.267029 630.309143,321.292816 
	C634.974365,322.032715 636.613342,320.354767 636.620605,315.365509 
	C636.673157,279.207794 637.029541,243.050507 637.310059,206.893234 
	C637.335938,203.561798 637.530640,200.232010 637.595398,196.900436 
	C637.649231,194.132355 638.902405,192.863922 641.699951,193.530243 
	C648.809570,195.223633 655.378540,197.832443 659.304749,204.574448 
	C664.152832,212.899536 665.180847,222.226395 665.520935,231.512802 
	C665.984070,244.160934 665.703064,256.836334 665.739197,270.500122 
M664.293640,587.275635 
	C662.308289,604.152466 653.266296,614.344299 637.223816,614.274597 
	C637.223816,607.189636 637.261658,600.073181 637.217407,592.957275 
	C636.999939,557.963013 636.777039,522.968811 636.484192,487.975128 
	C636.468323,486.080902 636.085876,482.680298 635.391724,482.549927 
	C631.363770,481.793549 627.129395,481.341522 623.108704,481.873627 
	C622.043152,482.014587 621.040710,485.930450 620.762085,488.205261 
	C618.211731,509.023926 615.268555,529.747925 607.386719,549.388855 
	C598.302368,572.026611 584.485718,590.823303 563.218018,603.548889 
	C546.424622,613.597412 528.227783,619.350525 508.866760,621.830139 
	C486.399658,624.707397 464.439880,623.708679 443.292816,614.615356 
	C413.903259,601.977783 393.330231,580.251953 378.891724,552.250977 
	C363.841766,523.064209 356.187164,491.788757 353.434906,459.237701 
	C353.077301,455.008301 351.934052,453.626038 347.538055,453.690643 
	C330.544342,453.940430 313.544312,453.748505 296.546631,453.754974 
	C294.819702,453.755646 293.092865,453.983826 290.754791,454.149780 
	C292.606201,465.473755 293.735199,476.258148 296.252289,486.708191 
	C298.885101,497.638275 302.287170,508.465240 306.338257,518.956787 
	C320.693359,556.133606 343.813721,586.458069 377.769348,607.965210 
	C403.597260,624.324402 432.059967,632.805359 462.329285,635.317810 
	C487.764832,637.428894 512.973572,635.863159 537.344299,627.637512 
	C556.982117,621.009277 574.855530,610.878235 591.760681,598.930359 
	C595.920959,595.990112 600.513062,593.517029 605.195862,591.501099 
	C609.698181,589.562927 613.737793,591.175232 616.455627,595.281494 
	C620.604675,601.550049 621.588562,608.737793 622.551941,615.726318 
	C621.852417,616.221619 621.613525,616.490906 621.320618,616.577515 
	C620.687256,616.764832 620.025574,616.976318 619.376587,616.972839 
	C610.505737,616.925171 612.362305,619.394287 612.022644,625.372559 
	C611.796692,629.349731 613.177368,630.506958 617.216736,630.227783 
	C628.513245,629.447327 639.841309,628.708130 651.157288,628.702637 
	C685.979553,628.685730 720.801941,629.030823 755.624451,629.208557 
	C765.390564,629.258423 775.157166,629.216125 785.594238,629.216125 
	C785.594238,627.875000 785.350342,625.890564 785.641724,623.988037 
	C786.399292,619.041077 784.545959,617.337280 779.472473,617.188232 
	C771.502441,616.954163 763.474548,616.299072 755.625488,614.934570 
	C745.560303,613.184814 734.959900,610.749084 730.322571,600.448669 
	C727.068298,593.220459 724.793762,584.901489 724.662598,577.026611 
	C724.013245,538.041809 724.222290,499.042633 724.129700,460.048553 
	C724.125000,458.080902 724.129089,456.113220 724.129089,454.094116 
	C704.428589,454.094116 685.186584,454.094116 665.718384,454.094116 
	C665.718384,455.835144 665.717590,457.154602 665.718445,458.474030 
	C665.741394,493.969269 665.841125,529.464783 665.723511,564.959595 
	C665.699829,572.101624 664.850830,579.240967 664.293640,587.275635 
M571.427368,394.502350 
	C571.427368,398.631592 571.427368,402.760834 571.427368,406.890076 
	C570.886536,406.946777 570.345703,407.003448 569.804932,407.060150 
	C568.769958,405.800354 567.673950,404.585388 566.710022,403.273438 
	C561.113220,395.655396 555.460632,388.075684 550.013367,380.351593 
	C547.804688,377.219757 545.316650,375.875763 541.405640,377.511688 
	C541.318237,378.550385 541.142273,379.684448 541.139587,380.818878 
	C541.109802,393.306061 541.096069,405.793365 541.102234,418.280609 
	C541.104797,423.407227 541.603394,423.732361 547.642456,422.215912 
	C547.642456,412.207764 547.642456,402.037140 547.642456,390.343018 
	C550.041992,393.045959 551.525879,394.515167 552.777039,396.161255 
	C558.894470,404.209381 565.070435,412.218140 570.961853,420.430084 
	C573.030518,423.313446 575.094910,423.787537 577.922119,422.432953 
	C577.922119,407.215302 577.922119,392.285645 577.922119,377.427032 
	C571.586182,375.952301 571.098267,376.331421 571.261475,382.031158 
	C571.371033,385.858246 571.382812,389.688141 571.427368,394.502350 
M370.408508,402.162354 
	C372.904022,402.105865 375.399261,402.017792 377.895050,401.998138 
	C390.478027,401.898987 390.477600,401.905243 390.329620,414.297302 
	C390.319702,415.129639 390.327057,415.962158 390.322601,416.794586 
	C390.285706,423.708038 390.979309,424.216187 397.822235,422.205566 
	C397.822235,407.192017 397.822235,392.158173 397.822235,376.674500 
	C395.171234,376.861237 392.959686,377.017029 390.564514,377.185760 
	C390.564514,382.922729 390.460480,388.076569 390.603851,393.223511 
	C390.688751,396.272797 389.414703,397.389465 386.457611,397.284393 
	C382.133453,397.130829 377.792664,397.007111 373.475983,397.218384 
	C369.876678,397.394531 368.333832,396.302521 368.559570,392.444183 
	C368.856079,387.375366 368.632355,382.276123 368.632355,377.236755 
	C365.666229,377.236755 363.623932,377.236755 361.296265,377.236755 
	C361.296265,392.593262 361.296265,407.497192 361.296265,422.688538 
	C363.810211,422.688538 366.025635,422.688538 368.123352,422.688538 
	C368.580322,415.721008 369.011871,409.140961 370.408508,402.162354 
M872.660645,403.500458 
	C872.619324,407.999573 872.555786,412.498657 872.541992,416.997864 
	C872.521362,423.725922 873.501526,424.387329 880.546082,421.974274 
	C880.546082,415.548767 880.546082,408.947968 880.546082,401.973999 
	C887.007324,401.973999 892.986877,401.801025 898.938599,402.130035 
	C900.037964,402.190826 901.783447,404.196716 901.922180,405.449738 
	C902.341736,409.238831 902.138428,413.099152 902.140198,416.931732 
	C902.143250,423.601288 902.656921,423.994965 909.803101,422.166138 
	C909.803101,414.828674 909.803040,407.354004 909.803040,399.879303 
	C909.803040,392.295837 909.803101,384.712372 909.803101,376.653320 
	C906.730286,376.847717 904.525757,376.987183 901.931824,377.151276 
	C901.931824,382.702881 901.841736,387.686188 901.965149,392.664215 
	C902.041077,395.728668 901.096680,397.310669 897.709106,397.181122 
	C893.217529,397.009430 888.708252,397.064240 884.215393,397.242523 
	C880.854797,397.375916 879.944946,395.921539 880.096924,392.734131 
	C880.340759,387.623169 880.162231,382.492065 880.162231,377.482727 
	C873.039185,375.966400 872.608276,376.261780 872.603943,382.504181 
	C872.599365,389.169586 872.642761,395.834991 872.660645,403.500458 
M808.694275,395.500031 
	C808.706848,402.817047 808.952271,410.143951 808.643188,417.447357 
	C808.462463,421.719391 809.582520,423.574371 814.149048,423.154327 
	C818.273438,422.774902 822.457336,423.073669 826.614014,423.009094 
	C837.171448,422.845123 843.742126,418.068848 847.096497,408.172791 
	C851.404236,395.464294 844.987732,380.062042 833.239990,377.800476 
	C825.452271,376.301208 817.141968,377.516327 809.098633,377.516327 
	C808.953674,377.924377 808.750916,378.231567 808.748779,378.540100 
	C808.712463,383.860443 808.700867,389.180969 808.694275,395.500031 
M436.382294,402.195251 
	C441.214935,402.148102 446.055847,402.239502 450.874023,401.951080 
	C452.003845,401.883423 453.056732,400.530853 454.145020,399.769440 
	C452.989716,398.913666 451.920105,397.517029 450.660828,397.317505 
	C448.223785,396.931366 445.679901,397.233368 443.180328,397.225922 
	C431.895966,397.192261 432.017822,397.189972 432.088196,385.684326 
	C432.109161,382.257965 433.074768,380.892578 436.627960,381.075897 
	C441.781921,381.341705 446.963531,381.352356 452.117981,381.124817 
	C453.351837,381.070312 454.525177,379.646088 455.726349,378.851837 
	C454.608215,378.172699 453.533752,377.013489 452.363525,376.906982 
	C449.221893,376.621155 446.039307,376.776520 442.872986,376.773041 
	C436.798004,376.766388 430.723022,376.771118 424.434784,376.771118 
	C424.434784,391.088745 424.651642,404.414642 424.315979,417.726654 
	C424.200043,422.323975 425.706543,423.690063 429.971741,423.139160 
	C431.939484,422.885010 433.965912,423.076080 435.965668,423.080627 
	C441.631744,423.093506 447.304382,423.265564 452.959167,423.021667 
	C454.311859,422.963348 455.605225,421.529602 456.925842,420.728394 
	C455.540039,419.940857 454.234558,418.865967 452.744995,418.449493 
	C451.354614,418.060730 449.768677,418.373535 448.268829,418.373810 
	C443.010712,418.374786 437.752563,418.374146 432.262268,418.374146 
	C432.262268,413.618805 432.023529,409.606445 432.403809,405.653656 
	C432.522095,404.424469 434.317383,403.356598 436.382294,402.195251 
M1195.823730,758.588379 
	C1195.010620,756.727722 1194.197632,754.867065 1192.737183,751.524658 
	C1189.001465,765.253113 1180.624512,772.765320 1168.774536,777.153076 
	C1181.197388,781.094666 1188.865234,789.142395 1193.024048,801.257690 
	C1197.028320,788.856262 1205.251831,781.198364 1218.642944,776.939270 
	C1207.681152,773.472046 1200.306396,768.232788 1195.823730,758.588379 
M607.218811,421.786377 
	C612.899414,407.853058 608.981628,410.843414 620.466675,409.836487 
	C628.162964,409.161713 632.490662,411.384491 634.614868,418.973816 
	C636.002136,423.930389 638.334229,424.357574 643.501343,421.947723 
	C637.854187,408.037598 632.107117,394.163940 626.652161,380.176361 
	C625.702881,377.742096 624.711365,376.743042 622.117615,376.741821 
	C619.450989,376.740570 617.907227,377.459595 616.930115,380.181915 
	C614.916260,385.791901 612.409729,391.222778 610.234802,396.777740 
	C606.887573,405.326691 603.648743,413.918121 599.953308,423.563354 
	C602.886902,423.080383 604.885742,422.751312 607.218811,421.786377 
M761.145935,381.421936 
	C755.734619,395.033051 750.323303,408.644165 744.812012,422.506775 
	C748.950134,423.649323 751.561035,423.701721 753.072693,418.967926 
	C755.971008,409.892029 756.312561,410.534119 765.187500,409.829712 
	C772.596924,409.241669 776.811829,411.426758 778.966919,418.749237 
	C780.472473,423.864777 782.400208,424.175293 788.071838,422.005859 
	C782.504333,408.245605 776.835693,394.527832 771.465149,380.694366 
	C770.488342,378.178589 769.624268,376.813995 766.717834,376.778351 
	C763.700806,376.741364 761.966675,377.764038 761.145935,381.421936 
M306.946198,419.491150 
	C314.298553,425.403290 329.627777,424.286041 334.802521,418.468811 
	C335.623962,417.545319 335.686523,415.946777 336.099945,414.660400 
	C334.773346,414.728729 333.428284,414.689941 332.128418,414.913605 
	C331.538391,415.015167 331.069611,415.694153 330.492096,416.014191 
	C321.301941,421.107178 311.888702,418.933136 307.992554,410.209808 
	C304.723480,402.890472 305.028076,395.100922 308.795868,388.018616 
	C312.951508,380.207306 323.873505,378.549103 329.055328,384.797363 
	C331.347321,387.561066 334.051239,388.483948 336.177216,386.394348 
	C338.816925,383.799896 335.827576,381.326355 333.831055,379.994659 
	C326.960663,375.411987 319.137146,375.147919 311.861816,378.044647 
	C295.761353,384.455139 292.922241,407.152649 306.946198,419.491150 
M696.933777,403.497925 
	C696.910645,408.157837 696.863342,412.817810 696.870178,417.477692 
	C696.879395,423.808990 697.766968,424.357758 704.474304,422.115509 
	C704.474304,418.524170 704.790466,414.840118 704.397034,411.233490 
	C703.863892,406.346252 705.145325,404.119690 710.554443,404.743744 
	C713.419495,405.074341 716.586182,404.531494 719.353577,403.600739 
	C724.857239,401.749695 728.182739,397.698730 728.514465,391.782257 
	C728.851990,385.763062 726.618835,380.237366 720.647766,378.827942 
	C713.109619,377.048584 705.172791,376.958588 696.928162,376.089233 
	C696.928162,385.916321 696.928162,394.206970 696.933777,403.497925 
M516.944153,381.002869 
	C519.013550,378.721802 518.881104,376.941589 515.484680,376.909546 
	C503.852905,376.799805 492.218475,376.854675 480.587219,377.009277 
	C479.653656,377.021667 478.736542,378.274200 477.811768,378.950409 
	C478.699463,379.714752 479.518219,381.015503 480.488098,381.140106 
	C483.107635,381.476685 485.830536,381.616760 488.441315,381.281250 
	C493.217560,380.667358 494.321442,382.759125 494.228088,387.169708 
	C493.979095,398.936188 494.143402,410.711426 494.143402,422.685486 
	C496.969513,422.685486 499.335480,422.685486 501.872284,422.685486 
	C501.970642,421.460602 502.090698,420.658539 502.091125,419.856415 
	C502.097137,408.389526 502.160675,396.921814 502.032379,385.456299 
	C501.997284,382.319366 502.877167,380.858337 506.266693,381.120605 
	C509.570557,381.376282 512.908447,381.193115 516.944153,381.002869 
M935.125427,380.823242 
	C935.120422,393.454956 935.205322,406.087799 935.049805,418.717682 
	C935.008911,422.038269 935.791016,423.577240 939.456177,423.469543 
	C942.698853,423.374207 944.281555,422.672729 944.208069,418.980042 
	C943.953430,406.187195 943.954041,393.388641 943.935364,380.592194 
	C943.931824,378.165344 943.683899,376.231476 940.587280,376.347443 
	C938.033936,376.442993 934.859436,375.528076 935.125427,380.823242 
z"/>
<path fill="#F9F9F8" opacity="1.000000" stroke="none" 
	d="
M665.740173,270.000092 
	C665.703064,256.836334 665.984070,244.160934 665.520935,231.512802 
	C665.180847,222.226395 664.152832,212.899536 659.304749,204.574448 
	C655.378540,197.832443 648.809570,195.223633 641.699951,193.530243 
	C638.902405,192.863922 637.649231,194.132355 637.595398,196.900436 
	C637.530640,200.232010 637.335938,203.561798 637.310059,206.893234 
	C637.029541,243.050507 636.673157,279.207794 636.620605,315.365509 
	C636.613342,320.354767 634.974365,322.032715 630.309143,321.292816 
	C630.146484,321.267029 629.976379,321.287720 629.809753,321.287079 
	C621.775696,321.256378 621.944153,321.230164 620.715698,313.336029 
	C617.184937,290.647522 612.952209,268.138824 601.651917,247.703491 
	C585.775757,218.993286 561.885437,200.129608 530.813904,190.078522 
	C510.759827,183.591400 490.331360,181.218094 469.286621,183.437454 
	C447.281250,185.758102 428.662231,195.154282 412.168396,209.389999 
	C391.877747,226.902802 378.959991,249.390381 369.401550,273.946625 
	C360.861298,295.887115 355.767059,318.721741 353.561920,342.181732 
	C353.455353,343.315430 353.197968,344.434998 352.957581,345.881439 
	C333.052368,345.881439 313.283905,345.881439 292.766022,345.881439 
	C293.446686,341.964478 293.925415,338.118591 294.795990,334.363525 
	C307.504700,279.548767 333.462158,233.124039 380.811279,200.723450 
	C400.636536,187.157196 422.779724,178.765579 446.451813,174.318100 
	C466.610748,170.530670 486.812683,170.136108 507.144379,172.264847 
	C532.437744,174.913071 555.194580,184.432556 576.430969,197.936890 
	C583.550476,202.464203 590.325500,207.532928 597.263672,212.345871 
	C607.746582,219.617737 615.404297,216.997238 619.218872,204.850983 
	C619.517517,203.899902 620.059326,203.004486 620.230103,202.037643 
	C620.834961,198.612946 621.328003,195.168472 621.956238,191.135605 
	C619.985779,190.805496 618.283508,190.303177 616.575623,190.282898 
	C613.703003,190.248795 612.462219,189.161743 612.295593,186.136353 
	C611.802917,177.189117 611.687561,177.536438 620.543335,177.618942 
	C665.688904,178.039597 710.837219,178.164841 755.982422,178.611801 
	C776.788696,178.817795 797.776611,177.930374 818.353516,180.342361 
	C857.465515,184.926941 892.390198,198.959900 916.660522,232.324631 
	C928.279785,248.297760 934.303284,266.476837 936.666260,285.823669 
	C938.882568,303.969452 937.701782,322.051361 933.746094,339.960541 
	C932.719910,344.606476 930.849609,346.404053 925.811218,346.290375 
	C909.656128,345.925873 893.487915,346.146759 877.324768,346.122192 
	C875.694397,346.119720 874.064209,345.984436 872.434753,345.910828 
	C873.419067,336.562286 874.698853,327.556824 875.254028,318.506927 
	C876.578918,296.907623 874.936035,275.415985 868.694519,254.718933 
	C858.647339,221.402466 841.027771,200.535797 800.151245,192.905075 
	C784.614136,190.004684 769.011414,189.868622 753.380371,191.322128 
	C749.156250,191.714935 744.915283,193.065002 740.925964,194.606888 
	C732.483093,197.870132 728.572937,205.223785 726.929443,213.317581 
	C725.221680,221.727905 724.331116,230.434662 724.253113,239.022400 
	C723.945923,272.845917 724.099060,306.673645 724.081543,340.499817 
	C724.080688,342.156128 724.081421,343.812469 724.081421,345.875641 
	C704.674377,345.875641 685.488281,345.875641 665.739197,345.875641 
	C665.739197,320.671906 665.739197,295.585999 665.740173,270.000092 
z"/>
<path fill="#F9F9F9" opacity="1.000000" stroke="none" 
	d="
M664.338013,586.828613 
	C664.850830,579.240967 665.699829,572.101624 665.723511,564.959595 
	C665.841125,529.464783 665.741394,493.969269 665.718445,458.474030 
	C665.717590,457.154602 665.718384,455.835144 665.718384,454.094116 
	C685.186584,454.094116 704.428589,454.094116 724.129089,454.094116 
	C724.129089,456.113220 724.125000,458.080902 724.129700,460.048553 
	C724.222290,499.042633 724.013245,538.041809 724.662598,577.026611 
	C724.793762,584.901489 727.068298,593.220459 730.322571,600.448669 
	C734.959900,610.749084 745.560303,613.184814 755.625488,614.934570 
	C763.474548,616.299072 771.502441,616.954163 779.472473,617.188232 
	C784.545959,617.337280 786.399292,619.041077 785.641724,623.988037 
	C785.350342,625.890564 785.594238,627.875000 785.594238,629.216125 
	C775.157166,629.216125 765.390564,629.258423 755.624451,629.208557 
	C720.801941,629.030823 685.979553,628.685730 651.157288,628.702637 
	C639.841309,628.708130 628.513245,629.447327 617.216736,630.227783 
	C613.177368,630.506958 611.796692,629.349731 612.022644,625.372559 
	C612.362305,619.394287 610.505737,616.925171 619.376587,616.972839 
	C620.025574,616.976318 620.687256,616.764832 621.320618,616.577515 
	C621.613525,616.490906 621.852417,616.221619 622.551941,615.726318 
	C621.588562,608.737793 620.604675,601.550049 616.455627,595.281494 
	C613.737793,591.175232 609.698181,589.562927 605.195862,591.501099 
	C600.513062,593.517029 595.920959,595.990112 591.760681,598.930359 
	C574.855530,610.878235 556.982117,621.009277 537.344299,627.637512 
	C512.973572,635.863159 487.764832,637.428894 462.329285,635.317810 
	C432.059967,632.805359 403.597260,624.324402 377.769348,607.965210 
	C343.813721,586.458069 320.693359,556.133606 306.338257,518.956787 
	C302.287170,508.465240 298.885101,497.638275 296.252289,486.708191 
	C293.735199,476.258148 292.606201,465.473755 290.754791,454.149780 
	C293.092865,453.983826 294.819702,453.755646 296.546631,453.754974 
	C313.544312,453.748505 330.544342,453.940430 347.538055,453.690643 
	C351.934052,453.626038 353.077301,455.008301 353.434906,459.237701 
	C356.187164,491.788757 363.841766,523.064209 378.891724,552.250977 
	C393.330231,580.251953 413.903259,601.977783 443.292816,614.615356 
	C464.439880,623.708679 486.399658,624.707397 508.866760,621.830139 
	C528.227783,619.350525 546.424622,613.597412 563.218018,603.548889 
	C584.485718,590.823303 598.302368,572.026611 607.386719,549.388855 
	C615.268555,529.747925 618.211731,509.023926 620.762085,488.205261 
	C621.040710,485.930450 622.043152,482.014587 623.108704,481.873627 
	C627.129395,481.341522 631.363770,481.793549 635.391724,482.549927 
	C636.085876,482.680298 636.468323,486.080902 636.484192,487.975128 
	C636.777039,522.968811 636.999939,557.963013 637.217407,592.957275 
	C637.261658,600.073181 637.223816,607.189636 637.223816,614.274597 
	C653.266296,614.344299 662.308289,604.152466 664.338013,586.828613 
z"/>
<path fill="#E0E0E0" opacity="1.000000" stroke="none" 
	d="
M571.432861,394.009583 
	C571.382812,389.688141 571.371033,385.858246 571.261475,382.031158 
	C571.098267,376.331421 571.586182,375.952301 577.922119,377.427032 
	C577.922119,392.285645 577.922119,407.215302 577.922119,422.432953 
	C575.094910,423.787537 573.030518,423.313446 570.961853,420.430084 
	C565.070435,412.218140 558.894470,404.209381 552.777039,396.161255 
	C551.525879,394.515167 550.041992,393.045959 547.642456,390.343018 
	C547.642456,402.037140 547.642456,412.207764 547.642456,422.215912 
	C541.603394,423.732361 541.104797,423.407227 541.102234,418.280609 
	C541.096069,405.793365 541.109802,393.306061 541.139587,380.818878 
	C541.142273,379.684448 541.318237,378.550385 541.405640,377.511688 
	C545.316650,375.875763 547.804688,377.219757 550.013367,380.351593 
	C555.460632,388.075684 561.113220,395.655396 566.710022,403.273438 
	C567.673950,404.585388 568.769958,405.800354 569.804932,407.060150 
	C570.345703,407.003448 570.886536,406.946777 571.427368,406.890076 
	C571.427368,402.760834 571.427368,398.631592 571.432861,394.009583 
z"/>
<path fill="#E1E1DF" opacity="1.000000" stroke="none" 
	d="
M369.925964,402.361633 
	C369.011871,409.140961 368.580322,415.721008 368.123352,422.688538 
	C366.025635,422.688538 363.810211,422.688538 361.296265,422.688538 
	C361.296265,407.497192 361.296265,392.593262 361.296265,377.236755 
	C363.623932,377.236755 365.666229,377.236755 368.632355,377.236755 
	C368.632355,382.276123 368.856079,387.375366 368.559570,392.444183 
	C368.333832,396.302521 369.876678,397.394531 373.475983,397.218384 
	C377.792664,397.007111 382.133453,397.130829 386.457611,397.284393 
	C389.414703,397.389465 390.688751,396.272797 390.603851,393.223511 
	C390.460480,388.076569 390.564514,382.922729 390.564514,377.185760 
	C392.959686,377.017029 395.171234,376.861237 397.822235,376.674500 
	C397.822235,392.158173 397.822235,407.192017 397.822235,422.205566 
	C390.979309,424.216187 390.285706,423.708038 390.322601,416.794586 
	C390.327057,415.962158 390.319702,415.129639 390.329620,414.297302 
	C390.477600,401.905243 390.478027,401.898987 377.895050,401.998138 
	C375.399261,402.017792 372.904022,402.105865 369.925964,402.361633 
z"/>
<path fill="#DCDDDC" opacity="1.000000" stroke="none" 
	d="
M872.662964,403.000427 
	C872.642761,395.834991 872.599365,389.169586 872.603943,382.504181 
	C872.608276,376.261780 873.039185,375.966400 880.162231,377.482727 
	C880.162231,382.492065 880.340759,387.623169 880.096924,392.734131 
	C879.944946,395.921539 880.854797,397.375916 884.215393,397.242523 
	C888.708252,397.064240 893.217529,397.009430 897.709106,397.181122 
	C901.096680,397.310669 902.041077,395.728668 901.965149,392.664215 
	C901.841736,387.686188 901.931824,382.702881 901.931824,377.151276 
	C904.525757,376.987183 906.730286,376.847717 909.803101,376.653320 
	C909.803101,384.712372 909.803040,392.295837 909.803040,399.879303 
	C909.803040,407.354004 909.803101,414.828674 909.803101,422.166138 
	C902.656921,423.994965 902.143250,423.601288 902.140198,416.931732 
	C902.138428,413.099152 902.341736,409.238831 901.922180,405.449738 
	C901.783447,404.196716 900.037964,402.190826 898.938599,402.130035 
	C892.986877,401.801025 887.007324,401.973999 880.546082,401.973999 
	C880.546082,408.947968 880.546082,415.548767 880.546082,421.974274 
	C873.501526,424.387329 872.521362,423.725922 872.541992,416.997864 
	C872.555786,412.498657 872.619324,407.999573 872.662964,403.000427 
z"/>
<path fill="#E3E3E2" opacity="1.000000" stroke="none" 
	d="
M808.689087,395.000732 
	C808.700867,389.180969 808.712463,383.860443 808.748779,378.540100 
	C808.750916,378.231567 808.953674,377.924377 809.098633,377.516327 
	C817.141968,377.516327 825.452271,376.301208 833.239990,377.800476 
	C844.987732,380.062042 851.404236,395.464294 847.096497,408.172791 
	C843.742126,418.068848 837.171448,422.845123 826.614014,423.009094 
	C822.457336,423.073669 818.273438,422.774902 814.149048,423.154327 
	C809.582520,423.574371 808.462463,421.719391 808.643188,417.447357 
	C808.952271,410.143951 808.706848,402.817047 808.689087,395.000732 
M816.264038,403.490967 
	C816.264038,408.395264 816.264038,413.299530 816.264038,418.624817 
	C823.631104,418.260773 830.554626,420.380188 835.857849,414.672058 
	C840.948486,409.192657 842.050171,396.754364 838.348083,389.162201 
	C835.288696,382.888153 828.970764,380.191223 819.637756,380.851196 
	C816.988220,381.038544 816.296570,382.113800 816.333496,384.568176 
	C816.423462,390.541626 816.298096,396.518341 816.264038,403.490967 
z"/>
<path fill="#DFE0DF" opacity="1.000000" stroke="none" 
	d="
M435.863586,402.205048 
	C434.317383,403.356598 432.522095,404.424469 432.403809,405.653656 
	C432.023529,409.606445 432.262268,413.618805 432.262268,418.374146 
	C437.752563,418.374146 443.010712,418.374786 448.268829,418.373810 
	C449.768677,418.373535 451.354614,418.060730 452.744995,418.449493 
	C454.234558,418.865967 455.540039,419.940857 456.925842,420.728394 
	C455.605225,421.529602 454.311859,422.963348 452.959167,423.021667 
	C447.304382,423.265564 441.631744,423.093506 435.965668,423.080627 
	C433.965912,423.076080 431.939484,422.885010 429.971741,423.139160 
	C425.706543,423.690063 424.200043,422.323975 424.315979,417.726654 
	C424.651642,404.414642 424.434784,391.088745 424.434784,376.771118 
	C430.723022,376.771118 436.798004,376.766388 442.872986,376.773041 
	C446.039307,376.776520 449.221893,376.621155 452.363525,376.906982 
	C453.533752,377.013489 454.608215,378.172699 455.726318,378.851807 
	C454.525177,379.646088 453.351837,381.070312 452.117981,381.124817 
	C446.963531,381.352356 441.781921,381.341705 436.627960,381.075897 
	C433.074768,380.892578 432.109161,382.257965 432.088196,385.684326 
	C432.017822,397.189972 431.895966,397.192261 443.180328,397.225922 
	C445.679901,397.233368 448.223785,396.931366 450.660828,397.317505 
	C451.920105,397.517029 452.989716,398.913666 454.145020,399.769409 
	C453.056732,400.530853 452.003845,401.883423 450.874023,401.951080 
	C446.055847,402.239502 441.214935,402.148102 435.863586,402.205048 
z"/>
<path fill="#7D7D7D" opacity="1.000000" stroke="none" 
	d="
M1195.944092,758.937256 
	C1200.306396,768.232788 1207.681152,773.472046 1218.642944,776.939270 
	C1205.251831,781.198364 1197.028320,788.856262 1193.024048,801.257690 
	C1188.865234,789.142395 1181.197388,781.094666 1168.774536,777.153076 
	C1180.624512,772.765320 1189.001465,765.253113 1192.737183,751.524658 
	C1194.197632,754.867065 1195.010620,756.727722 1195.944092,758.937256 
z"/>
<path fill="#E3E2E1" opacity="1.000000" stroke="none" 
	d="
M607.051636,422.104309 
	C604.885742,422.751312 602.886902,423.080383 599.953308,423.563354 
	C603.648743,413.918121 606.887573,405.326691 610.234802,396.777740 
	C612.409729,391.222778 614.916260,385.791901 616.930115,380.181915 
	C617.907227,377.459595 619.450989,376.740570 622.117615,376.741821 
	C624.711365,376.743042 625.702881,377.742096 626.652161,380.176361 
	C632.107117,394.163940 637.854187,408.037598 643.501343,421.947723 
	C638.334229,424.357574 636.002136,423.930389 634.614868,418.973816 
	C632.490662,411.384491 628.162964,409.161713 620.466675,409.836487 
	C608.981628,410.843414 612.899414,407.853058 607.051636,422.104309 
M617.117676,395.577911 
	C615.911743,398.736969 614.705872,401.896027 613.412903,405.283081 
	C618.951294,405.283081 623.576660,405.283081 628.782715,405.283081 
	C626.231445,398.574036 623.952026,392.579956 621.672668,386.585846 
	C621.226746,386.614410 620.780884,386.643005 620.335022,386.671570 
	C619.371338,389.403259 618.407715,392.134918 617.117676,395.577911 
z"/>
<path fill="#E3E2E1" opacity="1.000000" stroke="none" 
	d="
M761.310242,381.087097 
	C761.966675,377.764038 763.700806,376.741364 766.717834,376.778351 
	C769.624268,376.813995 770.488342,378.178589 771.465149,380.694366 
	C776.835693,394.527832 782.504333,408.245605 788.071838,422.005859 
	C782.400208,424.175293 780.472473,423.864777 778.966919,418.749237 
	C776.811829,411.426758 772.596924,409.241669 765.187500,409.829712 
	C756.312561,410.534119 755.971008,409.892029 753.072693,418.967926 
	C751.561035,423.701721 748.950134,423.649323 744.812012,422.506775 
	C750.323303,408.644165 755.734619,395.033051 761.310242,381.087097 
M771.773926,400.784668 
	C769.936584,395.973785 768.099304,391.162903 766.261963,386.352020 
	C765.817993,386.413361 765.374023,386.474731 764.930054,386.536102 
	C762.701599,392.744812 760.473145,398.953552 758.101318,405.561768 
	C763.624634,405.561768 768.167542,405.561768 773.236877,405.561768 
	C772.807739,403.901306 772.494873,402.690735 771.773926,400.784668 
z"/>
<path fill="#E0DFDE" opacity="1.000000" stroke="none" 
	d="
M306.647034,419.300049 
	C292.922241,407.152649 295.761353,384.455139 311.861816,378.044647 
	C319.137146,375.147919 326.960663,375.411987 333.831055,379.994659 
	C335.827576,381.326355 338.816925,383.799896 336.177216,386.394348 
	C334.051239,388.483948 331.347321,387.561066 329.055328,384.797363 
	C323.873505,378.549103 312.951508,380.207306 308.795868,388.018616 
	C305.028076,395.100922 304.723480,402.890472 307.992554,410.209808 
	C311.888702,418.933136 321.301941,421.107178 330.492096,416.014191 
	C331.069611,415.694153 331.538391,415.015167 332.128418,414.913605 
	C333.428284,414.689941 334.773346,414.728729 336.099945,414.660400 
	C335.686523,415.946777 335.623962,417.545319 334.802521,418.468811 
	C329.627777,424.286041 314.298553,425.403290 306.647034,419.300049 
z"/>
<path fill="#E3E2E1" opacity="1.000000" stroke="none" 
	d="
M696.930969,402.997803 
	C696.928162,394.206970 696.928162,385.916321 696.928162,376.089233 
	C705.172791,376.958588 713.109619,377.048584 720.647766,378.827942 
	C726.618835,380.237366 728.851990,385.763062 728.514465,391.782257 
	C728.182739,397.698730 724.857239,401.749695 719.353577,403.600739 
	C716.586182,404.531494 713.419495,405.074341 710.554443,404.743744 
	C705.145325,404.119690 703.863892,406.346252 704.397034,411.233490 
	C704.790466,414.840118 704.474304,418.524170 704.474304,422.115509 
	C697.766968,424.357758 696.879395,423.808990 696.870178,417.477692 
	C696.863342,412.817810 696.910645,408.157837 696.930969,402.997803 
M720.370544,386.580597 
	C719.596741,385.511414 719.004395,383.753510 718.017395,383.493469 
	C713.961853,382.424866 709.786194,381.811951 705.654785,381.031403 
	C705.240601,383.670807 704.669312,386.297516 704.455139,388.953003 
	C704.228455,391.764648 704.072449,394.638641 704.432922,397.414276 
	C704.586121,398.593353 705.985779,400.342346 707.069092,400.554382 
	C716.711609,402.441895 722.112366,397.063416 720.370544,386.580597 
z"/>
<path fill="#DBDBDA" opacity="1.000000" stroke="none" 
	d="
M516.587769,381.102722 
	C512.908447,381.193115 509.570557,381.376282 506.266693,381.120605 
	C502.877167,380.858337 501.997284,382.319366 502.032379,385.456299 
	C502.160675,396.921814 502.097137,408.389526 502.091125,419.856415 
	C502.090698,420.658539 501.970642,421.460602 501.872284,422.685486 
	C499.335480,422.685486 496.969513,422.685486 494.143402,422.685486 
	C494.143402,410.711426 493.979095,398.936188 494.228088,387.169708 
	C494.321442,382.759125 493.217560,380.667358 488.441315,381.281250 
	C485.830536,381.616760 483.107635,381.476685 480.488098,381.140106 
	C479.518219,381.015503 478.699463,379.714752 477.811768,378.950409 
	C478.736542,378.274200 479.653656,377.021667 480.587219,377.009277 
	C492.218475,376.854675 503.852905,376.799805 515.484680,376.909546 
	C518.881104,376.941589 519.013550,378.721802 516.587769,381.102722 
z"/>
<path fill="#8C8D8E" opacity="1.000000" stroke="none" 
	d="
M935.126709,380.369812 
	C934.859436,375.528076 938.033936,376.442993 940.587280,376.347443 
	C943.683899,376.231476 943.931824,378.165344 943.935364,380.592194 
	C943.954041,393.388641 943.953430,406.187195 944.208069,418.980042 
	C944.281555,422.672729 942.698853,423.374207 939.456177,423.469543 
	C935.791016,423.577240 935.008911,422.038269 935.049805,418.717682 
	C935.205322,406.087799 935.120422,393.454956 935.126709,380.369812 
M939.513672,377.548401 
	C938.588928,378.449097 936.869873,379.339905 936.858459,380.252045 
	C936.686768,394.021240 936.739441,407.793274 936.739441,421.868805 
	C938.771301,421.868805 940.307068,421.868805 942.208496,421.868805 
	C942.208496,407.585602 942.233337,393.646149 942.135498,379.707581 
	C942.130554,379.004730 941.065613,378.309387 939.513672,377.548401 
z"/>
<path fill="#0E0E0E" opacity="1.000000" stroke="none" 
	d="
M816.261719,402.992371 
	C816.298096,396.518341 816.423462,390.541626 816.333496,384.568176 
	C816.296570,382.113800 816.988220,381.038544 819.637756,380.851196 
	C828.970764,380.191223 835.288696,382.888153 838.348083,389.162201 
	C842.050171,396.754364 840.948486,409.192657 835.857849,414.672058 
	C830.554626,420.380188 823.631104,418.260773 816.264038,418.624817 
	C816.264038,413.299530 816.264038,408.395264 816.261719,402.992371 
z"/>
<path fill="#212122" opacity="1.000000" stroke="none" 
	d="
M617.280884,395.222260 
	C618.407715,392.134918 619.371338,389.403259 620.335022,386.671570 
	C620.780884,386.643005 621.226746,386.614410 621.672668,386.585846 
	C623.952026,392.579956 626.231445,398.574036 628.782715,405.283081 
	C623.576660,405.283081 618.951294,405.283081 613.412903,405.283081 
	C614.705872,401.896027 615.911743,398.736969 617.280884,395.222260 
z"/>
<path fill="#202121" opacity="1.000000" stroke="none" 
	d="
M771.977966,401.132446 
	C772.494873,402.690735 772.807739,403.901306 773.236877,405.561768 
	C768.167542,405.561768 763.624634,405.561768 758.101318,405.561768 
	C760.473145,398.953552 762.701599,392.744812 764.930054,386.536102 
	C765.374023,386.474731 765.817993,386.413361 766.261963,386.352020 
	C768.099304,391.162903 769.936584,395.973785 771.977966,401.132446 
z"/>
<path fill="#191819" opacity="1.000000" stroke="none" 
	d="
M720.477661,386.970184 
	C722.112366,397.063416 716.711609,402.441895 707.069092,400.554382 
	C705.985779,400.342346 704.586121,398.593353 704.432922,397.414276 
	C704.072449,394.638641 704.228455,391.764648 704.455139,388.953003 
	C704.669312,386.297516 705.240601,383.670807 705.654785,381.031403 
	C709.786194,381.811951 713.961853,382.424866 718.017395,383.493469 
	C719.004395,383.753510 719.596741,385.511414 720.477661,386.970184 
z"/>
<path fill="#F9F9F8" opacity="1.000000" stroke="none" 
	d="
M940.003906,377.579468 
	C941.065613,378.309387 942.130554,379.004730 942.135498,379.707581 
	C942.233337,393.646149 942.208496,407.585602 942.208496,421.868805 
	C940.307068,421.868805 938.771301,421.868805 936.739441,421.868805 
	C936.739441,407.793274 936.686768,394.021240 936.858459,380.252045 
	C936.869873,379.339905 938.588928,378.449097 940.003906,377.579468 
z"/>
</svg>